<svg xmlns="http://www.w3.org/2000/svg" width="127" height="13"><path d="M 0 0.037 C 0.334 1.304 1.329 2.29 2.599 2.611 L 6.658 2.611 L 6.866 2.693 L 6.866 12.937 L 9.399 12.937 L 9.399 2.708 L 9.629 2.626 L 13.691 2.626 C 14.957 2.296 15.948 1.314 16.291 0.052 L 16.291 0.026 L 0 0.026 Z M 88.607 0.022 L 86.081 0.022 L 86.081 12.967 L 97.645 12.967 C 98.758 12.536 99.584 11.581 99.851 10.419 L 88.599 10.419 Z M 69.174 2.57 C 70.518 2.199 71.647 1.151 71.918 0.015 L 57.77 0.037 L 57.77 7.67 L 69.345 7.67 L 69.345 10.355 L 60.262 10.355 C 58.861 10.719 57.683 11.665 57.027 12.955 L 71.84 12.955 L 71.84 5.129 L 60.269 5.129 L 60.269 2.57 Z M 112.313 12.959 L 114.824 12.959 L 114.824 7.752 L 123.951 7.752 L 123.951 12.959 L 126.458 12.959 L 126.458 5.152 L 112.313 5.137 Z M 31.694 2.6 L 41.349 2.6 C 42.639 2.29 43.648 1.287 43.967 0 L 29.076 0 C 29.399 1.286 30.407 2.287 31.694 2.6 Z M 31.694 7.715 L 41.349 7.715 C 42.638 7.403 43.646 6.401 43.967 5.115 L 29.076 5.115 C 29.4 6.399 30.408 7.4 31.694 7.715 Z M 31.694 12.967 L 41.349 12.967 C 42.638 12.655 43.646 11.653 43.967 10.367 L 29.076 10.367 C 29.399 11.652 30.407 12.653 31.694 12.967 Z M 114.545 2.607 L 124.2 2.607 C 125.49 2.298 126.501 1.295 126.822 0.007 L 111.927 0.007 C 112.248 1.294 113.257 2.296 114.545 2.607 Z" fill="rgb(255,255,255)"></path></svg>